<svg width="116" height="116" viewBox="0 0 116 116" fill="none" xmlns="http://www.w3.org/2000/svg">
<circle cx="58" cy="58" r="58" fill="#D9D9D9"/>
<g clip-path="url(#clip0_1253_16160)">
<path d="M37.3242 89.8723H39.059V98.9114H40.9162V89.8723H42.651V88.1099H37.3242V89.8723Z" fill="#171122"/>
<path d="M48.1997 92.995C48.4003 92.5433 48.5015 91.9907 48.5015 91.353C48.5015 89.2008 47.5516 88.1079 45.6766 88.1079H43.086V98.9112H44.9415V94.4493H45.531L46.9284 98.9112H48.8957L47.2444 94.0454C47.6901 93.7726 48.0115 93.4201 48.1997 92.995V92.995ZM44.9415 89.8722H45.5434C45.998 89.8722 46.3051 89.9837 46.4507 90.1963C46.5271 90.3221 46.5786 90.4744 46.6034 90.6515C46.6318 90.8428 46.646 91.0696 46.646 91.3229C46.646 91.5762 46.6318 91.8029 46.6034 91.9942C46.5768 92.1713 46.5306 92.3219 46.4685 92.4299C46.3975 92.5398 46.3016 92.6213 46.1755 92.6815C46.0423 92.7435 45.8559 92.7754 45.618 92.7754H44.9433V89.8722H44.9415Z" fill="#171122"/>
<path d="M52.9565 88.1099H51.4206L49.0022 98.9132H50.8702L51.3123 96.6671H53.0648L53.5069 98.9132H55.3748L52.9866 88.248L52.9565 88.1099V88.1099ZM52.7168 94.9047H51.6461L52.1805 92.1503L52.715 94.9047H52.7168Z" fill="#171122"/>
<path d="M57.953 88.1099H55.5541V98.9132H57.8198C58.7555 98.9132 59.4888 98.6616 59.9966 98.1657C60.5062 97.6679 60.7637 96.8974 60.7637 95.8754V90.9883C60.7637 90.0849 60.5222 89.3728 60.0464 88.8698C59.567 88.3649 58.8638 88.1099 57.953 88.1099ZM57.4096 89.8723H57.9228C58.3027 89.8723 58.562 89.9609 58.6916 90.138C58.8336 90.3311 58.9064 90.6163 58.9064 90.9865V96.0206C58.9064 96.4262 58.8319 96.7203 58.6827 96.8974C58.5424 97.0639 58.2868 97.1489 57.921 97.1489H57.4078V89.8723H57.4096Z" fill="#171122"/>
<path d="M61.7136 98.9114H66.5414V97.0604H63.5691V94.3485H66.1579V92.586H63.5691V89.8723H66.5414V88.1099H61.7136V98.9114Z" fill="#171122"/>
<path d="M78.5231 89.9361C78.4183 89.5429 78.2265 89.1939 77.9513 88.8999C77.6779 88.6058 77.3654 88.3986 77.0262 88.2799C76.6942 88.1665 76.3089 88.1099 75.8792 88.1099H73.4502V98.9132H75.3057V94.8338H75.8934C76.4811 94.8338 76.9641 94.7293 77.3334 94.5256C77.7027 94.3201 78.0028 94.0296 78.2212 93.6647C78.4094 93.3636 78.5337 93.0359 78.5905 92.6905C78.6456 92.3593 78.674 91.9501 78.674 91.4718C78.674 90.8342 78.6225 90.3169 78.5213 89.9361H78.5231ZM76.8878 92.1928C76.8753 92.3823 76.8345 92.5399 76.767 92.6693C76.7049 92.7932 76.609 92.8889 76.474 92.9597C76.3338 93.0341 76.1243 93.0713 75.8508 93.0713H75.3075V89.8741H75.9094C76.1722 89.8741 76.3693 89.9113 76.4989 89.9839C76.6232 90.0548 76.7155 90.154 76.7777 90.2868C76.8451 90.4321 76.8842 90.6039 76.8931 90.7987C76.902 91.0184 76.9073 91.2504 76.9073 91.4878C76.9073 91.7446 76.9002 91.9838 76.886 92.1945L76.8878 92.1928Z" fill="#171122"/>
<path d="M70.8455 96.2402C70.8455 96.5608 70.7744 96.7964 70.6324 96.9364C70.4903 97.0763 70.3146 97.1489 70.0962 97.1489C69.8778 97.1489 69.7038 97.0798 69.5599 96.9364C69.4161 96.7929 69.3469 96.5608 69.3469 96.2402V88.1099H67.4914V96.3873C67.4914 96.7539 67.5606 97.0958 67.6973 97.4058C67.8323 97.714 68.0241 97.9903 68.2638 98.2294C68.5035 98.4686 68.7822 98.6599 69.0894 98.7945C69.4001 98.9309 69.7393 99 70.0944 99C70.4495 99 70.7904 98.9309 71.1065 98.7945C71.419 98.6599 71.6995 98.4686 71.941 98.2294C72.1825 97.9903 72.3707 97.7122 72.5021 97.4022C72.6335 97.0922 72.6992 96.7521 72.6992 96.3873V86.6396H70.8437V96.2402H70.8455Z" fill="#171122"/>
<path d="M71.7563 85.0933L69.9097 86.6396H73.6012L71.7563 85.0933Z" fill="#171122"/>
<path d="M57.9991 69.9875L46.433 63.3627V39.7226L36.3281 42.7285L46.433 36.9097L57.9991 30.2478V17L35 30.2478V69.9875L58.0044 83.237L57.9991 69.9875Z" fill="#3C334F"/>
<path d="M58.0009 69.9875L69.5688 63.3645V39.7226L79.6719 42.7285L69.5688 36.9097L58.0009 30.2478V17L81 30.2478V69.9875L57.9973 83.237L58.0009 69.9875Z" fill="#171122"/>
</g>
<defs>
<clipPath id="clip0_1253_16160">
<rect width="46" height="82" fill="white" transform="translate(35 17)"/>
</clipPath>
</defs>
</svg>
