<?xml version="1.0" encoding="UTF-8"?><svg id="Layer_2" xmlns="http://www.w3.org/2000/svg" viewBox="0 0 344.48 142.55"><defs><style>.cls-1{fill:#fff;}.cls-2{fill:#ccc;}</style></defs><g id="Layer_1-2"><g><g><polygon class="cls-1" points="111.58 59 121.35 59 121.35 110.04 131.8 110.04 131.8 59 141.58 59 141.58 49.05 111.58 49.05 111.58 59"/><path class="cls-1" d="M172.83,76.63c1.13-2.55,1.7-5.67,1.7-9.27,0-12.15-5.35-18.32-15.91-18.32h-14.59v60.99h10.45v-25.19h3.32l7.87,25.19h11.08l-9.3-27.47c2.51-1.54,4.32-3.53,5.38-5.93Zm-18.35-17.63h3.39c2.56,0,4.29,.63,5.11,1.83,.43,.71,.72,1.57,.86,2.57,.16,1.08,.24,2.36,.24,3.79s-.08,2.71-.24,3.79c-.15,1-.41,1.85-.76,2.46-.4,.62-.94,1.08-1.65,1.42-.75,.35-1.8,.53-3.14,.53h-3.8v-16.39Z"/><path class="cls-1" d="M199.62,49.05h-8.65l-13.62,60.99h10.52l2.49-12.68h9.87l2.49,12.68h10.52l-13.45-60.21-.17-.78Zm-1.35,38.36h-6.03l3.01-15.55,3.01,15.55Z"/><path class="cls-1" d="M227.76,49.05h-13.51v60.99h12.76c5.27,0,9.4-1.42,12.26-4.22,2.87-2.81,4.32-7.16,4.32-12.93v-27.59c0-5.1-1.36-9.12-4.04-11.96-2.7-2.85-6.66-4.29-11.79-4.29Zm-3.06,9.95h2.89c2.14,0,3.6,.5,4.33,1.5,.8,1.09,1.21,2.7,1.21,4.79v28.42c0,2.29-.42,3.95-1.26,4.95-.79,.94-2.23,1.42-4.29,1.42h-2.89V59Z"/><polygon class="cls-1" points="248.94 110.04 276.13 110.04 276.13 99.59 259.39 99.59 259.39 84.27 273.97 84.27 273.97 74.32 259.39 74.32 259.39 59 276.13 59 276.13 49.05 248.94 49.05 248.94 110.04"/><path class="cls-1" d="M343.61,59.36c-.59-2.22-1.67-4.19-3.22-5.85-1.54-1.66-3.3-2.83-5.21-3.5-1.87-.64-4.04-.96-6.46-.96h-13.68v60.99h10.45v-23.03h3.31c3.31,0,6.03-.59,8.11-1.74,2.08-1.16,3.77-2.8,5-4.86,1.06-1.7,1.76-3.55,2.08-5.5,.31-1.87,.47-4.18,.47-6.88,0-3.6-.29-6.52-.86-8.67Zm-9.21,12.74c-.07,1.07-.3,1.96-.68,2.69-.35,.7-.89,1.24-1.65,1.64-.79,.42-1.97,.63-3.51,.63h-3.06v-18.05h3.39c1.48,0,2.59,.21,3.32,.62,.7,.4,1.22,.96,1.57,1.71,.38,.82,.6,1.79,.65,2.89,.05,1.24,.08,2.55,.08,3.89,0,1.45-.04,2.8-.12,3.99Z"/><g><path class="cls-1" d="M300.37,94.95c0,1.81-.4,3.14-1.2,3.93s-1.79,1.2-3.02,1.2-2.21-.39-3.02-1.2-1.2-2.12-1.2-3.93V49.05h-10.45v46.73c0,2.07,.39,4,1.16,5.75,.76,1.74,1.84,3.3,3.19,4.65,1.35,1.35,2.92,2.43,4.65,3.19,1.75,.77,3.66,1.16,5.66,1.16s3.92-.39,5.7-1.16c1.76-.76,3.34-1.84,4.7-3.19s2.42-2.92,3.16-4.67c.74-1.75,1.11-3.67,1.11-5.73V40.75h-10.45v54.2Z"/><polygon class="cls-1" points="305.5 32.02 295.1 40.75 315.89 40.75 305.5 32.02"/></g></g><g><polygon class="cls-1" points="49.38 114.04 24.55 99.78 24.55 48.9 2.85 55.37 24.55 42.85 49.38 28.51 49.38 0 0 28.51 0 114.04 49.39 142.55 49.38 114.04"/><polygon class="cls-2" points="49.38 114.04 74.22 99.78 74.22 48.9 95.91 55.37 74.22 42.85 49.38 28.51 49.38 0 98.76 28.51 98.76 114.04 49.37 142.55 49.38 114.04"/></g></g></g></svg>