<svg width="24" height="24" viewBox="0 0 24 24" fill="none" xmlns="http://www.w3.org/2000/svg">
<mask id="path-1-inside-1_2843_56946" fill="white">
<path d="M2.5 11.7308C2.5 10.0388 2.5 9.19275 2.85288 8.44909C3.20576 7.70544 3.86847 7.15485 5.1939 6.05369L6.47961 4.98552C8.8753 2.99517 10.0731 2 11.5 2C12.9268 2 14.1247 2.99517 16.5204 4.98552L17.8061 6.05369C19.1315 7.15485 19.7942 7.70544 20.1471 8.44909C20.5 9.19275 20.5 10.0388 20.5 11.7308V17.0152C20.5 19.3651 20.5 20.54 19.7468 21.27C18.9937 22 17.7815 22 15.3571 22H7.64286C5.21849 22 4.00631 22 3.25315 21.27C2.5 20.54 2.5 19.3651 2.5 17.0152V11.7308Z"/>
</mask>
<path d="M13.9143 22C13.9143 22.4418 14.2725 22.8 14.7143 22.8C15.1561 22.8 15.5143 22.4418 15.5143 22H13.9143ZM7.48571 22C7.48571 22.4418 7.84389 22.8 8.28571 22.8C8.72754 22.8 9.08571 22.4418 9.08571 22H7.48571ZM9.57143 15.3228H13.4286V13.7228H9.57143V15.3228ZM13.9143 15.769V22H15.5143V15.769H13.9143ZM7.48571 15.769V22H9.08571V15.769H7.48571ZM13.4286 15.3228C13.7205 15.3228 13.9143 15.5459 13.9143 15.769H15.5143C15.5143 14.6156 14.5568 13.7228 13.4286 13.7228V15.3228ZM9.57143 13.7228C8.44324 13.7228 7.48571 14.6156 7.48571 15.769H9.08571C9.08571 15.5459 9.27945 15.3228 9.57143 15.3228V13.7228ZM6.47961 4.98552L7.50206 6.2162L7.50206 6.2162L6.47961 4.98552ZM16.5204 4.98552L15.4979 6.2162L15.4979 6.2162L16.5204 4.98552ZM17.8061 6.05369L18.8286 4.82301L18.8286 4.823L17.8061 6.05369ZM5.1939 6.05369L4.17144 4.823L4.17144 4.823L5.1939 6.05369ZM18.9 11.7308V17.0152H22.1V11.7308H18.9ZM15.3571 20.4H7.64286V23.6H15.3571V20.4ZM4.1 17.0152V11.7308H0.9V17.0152H4.1ZM6.21635 7.28438L7.50206 6.2162L5.45715 3.75483L4.17144 4.823L6.21635 7.28438ZM15.4979 6.2162L16.7837 7.28438L18.8286 4.823L17.5428 3.75483L15.4979 6.2162ZM7.50206 6.2162C8.73127 5.19498 9.54169 4.52543 10.2158 4.09391C10.8513 3.68706 11.2056 3.6 11.5 3.6L11.5 0.4C10.3675 0.4 9.4095 0.810524 8.49048 1.39885C7.61 1.9625 6.62364 2.78571 5.45715 3.75483L7.50206 6.2162ZM17.5428 3.75483C16.3764 2.78571 15.39 1.9625 14.5095 1.39885C13.5905 0.810524 12.6325 0.4 11.5 0.4V3.6C11.7944 3.6 12.1487 3.68706 12.7842 4.09391C13.4583 4.52543 14.2687 5.19498 15.4979 6.2162L17.5428 3.75483ZM7.64286 20.4C6.3868 20.4 5.60083 20.3968 5.02806 20.3222C4.49633 20.2529 4.39476 20.1483 4.36673 20.1211L2.13957 22.4189C2.86471 23.1217 3.74581 23.3821 4.61455 23.4953C5.44225 23.6032 6.47455 23.6 7.64286 23.6V20.4ZM0.9 17.0152C0.9 18.1435 0.896387 19.1557 1.00932 19.9699C1.12936 20.8353 1.40746 21.7093 2.13957 22.4189L4.36673 20.1211C4.34569 20.1007 4.24722 20.0222 4.17897 19.5302C4.10361 18.9869 4.1 18.2367 4.1 17.0152H0.9ZM18.9 17.0152C18.9 18.2367 18.8964 18.9869 18.821 19.5302C18.7528 20.0222 18.6543 20.1007 18.6333 20.1211L20.8604 22.4189C21.5925 21.7093 21.8706 20.8353 21.9907 19.9699C22.1036 19.1557 22.1 18.1435 22.1 17.0152H18.9ZM15.3571 23.6C16.5254 23.6 17.5578 23.6032 18.3855 23.4953C19.2542 23.3821 20.1353 23.1217 20.8604 22.4189L18.6333 20.1211C18.6052 20.1483 18.5037 20.2529 17.9719 20.3222C17.3992 20.3968 16.6132 20.4 15.3571 20.4V23.6ZM22.1 11.7308C22.1 10.1885 22.136 8.90824 21.5926 7.76317L18.7016 9.13502C18.864 9.47727 18.9 9.88905 18.9 11.7308H22.1ZM16.7837 7.28438C18.225 8.48187 18.5358 8.78568 18.7016 9.13502L21.5926 7.76317C21.0526 6.62519 20.038 5.82784 18.8286 4.82301L16.7837 7.28438ZM4.1 11.7308C4.1 9.88905 4.13599 9.47727 4.29839 9.13502L1.40736 7.76317C0.864011 8.90824 0.9 10.1885 0.9 11.7308H4.1ZM4.17144 4.823C2.96196 5.82784 1.94736 6.62519 1.40736 7.76317L4.29839 9.13502C4.46416 8.78568 4.77498 8.48187 6.21635 7.28438L4.17144 4.823Z" fill="#7F7F7F" mask="url(#path-1-inside-1_2843_56946)"/>
</svg>
